<svg xmlns="http://www.w3.org/2000/svg" width="22" height="27.018" viewBox="0 0 22 27.018">
  <path id="Icon_metro-apple" data-name="Icon metro-apple" d="M23.81,16.284a6.113,6.113,0,0,1,2.917-5.144,6.31,6.31,0,0,0-4.94-2.677c-2.1-.213-4.105,1.239-5.173,1.239S13.9,8.494,12.155,8.526a6.61,6.61,0,0,0-5.589,3.387c-2.383,4.134-.61,10.259,1.712,13.613,1.135,1.641,2.488,3.485,4.264,3.419,1.711-.068,2.358-1.107,4.426-1.107s2.65,1.107,4.46,1.073c1.841-.034,3.007-1.673,4.134-3.319a14.893,14.893,0,0,0,1.871-3.842,5.967,5.967,0,0,1-3.625-5.465Zm-3.4-10.041a5.954,5.954,0,0,0,1.406-4.315,6.057,6.057,0,0,0-3.979,2.046A5.664,5.664,0,0,0,16.4,8.154,5.011,5.011,0,0,0,20.408,6.243Z" transform="translate(-5.436 -1.928)" fill="#c2cad8"/>
</svg>
