<svg xmlns="http://www.w3.org/2000/svg" width="22" height="16.5" viewBox="0 0 22 16.5">
  <path id="Icon_awesome-envelope" data-name="Icon awesome-envelope" d="M21.583,9.948a.259.259,0,0,1,.417.2v8.787A2.063,2.063,0,0,1,19.937,21H2.062A2.063,2.063,0,0,1,0,18.937V10.155a.257.257,0,0,1,.417-.2c.963.748,2.239,1.7,6.621,4.881.907.662,2.436,2.054,3.962,2.045,1.534.013,3.094-1.409,3.966-2.045C19.349,11.65,20.621,10.7,21.583,9.948ZM11,15.5c1,.017,2.432-1.255,3.154-1.779,5.7-4.138,6.136-4.5,7.451-5.53a1.028,1.028,0,0,0,.4-.812V6.562A2.063,2.063,0,0,0,19.937,4.5H2.062A2.063,2.063,0,0,0,0,6.562v.816a1.035,1.035,0,0,0,.4.812c1.315,1.027,1.749,1.392,7.451,5.53C8.568,14.245,10,15.517,11,15.5Z" transform="translate(0 -4.5)" fill="#c2cad8"/>
</svg>
