<svg xmlns="http://www.w3.org/2000/svg" width="22.25" height="22.25" viewBox="0 0 22.25 22.25">
  <g id="Group_1" data-name="Group 1" transform="translate(-92.75 -705)">
    <g id="google-svgrepo-com_1_" data-name="google-svgrepo-com (1)" transform="translate(92.75 705)">
      <path id="Path_446" data-name="Path 446" d="M27.185,15.723a9.349,9.349,0,0,0-.24-2.274H16.287v4.129h6.256a5.421,5.421,0,0,1-2.321,3.609l-.021.138,3.37,2.558.233.023A10.769,10.769,0,0,0,27.185,15.723Z" transform="translate(-4.935 -4.351)" fill="#c2cad8"/>
      <path id="Path_447" data-name="Path 447" d="M13.665,27.693A10.949,10.949,0,0,0,21.183,25L17.6,22.279a6.817,6.817,0,0,1-3.935,1.112,6.821,6.821,0,0,1-6.458-4.623l-.133.011-3.5,2.658-.046.125A11.369,11.369,0,0,0,13.665,27.693Z" transform="translate(-2.314 -5.444)" fill="#c2cad8"/>
      <path id="Path_448" data-name="Path 448" d="M6.895,16.9a6.725,6.725,0,0,1-.378-2.2,7.066,7.066,0,0,1,.366-2.2l-.006-.147-3.548-2.7L3.212,9.7a10.9,10.9,0,0,0,0,9.988Z" transform="translate(-2.001 -3.571)" fill="#c2cad8"/>
      <path id="Path_449" data-name="Path 449" d="M13.665,6.3a6.359,6.359,0,0,1,4.389,1.656l3.2-3.066A11.029,11.029,0,0,0,13.665,2,11.369,11.369,0,0,0,3.524,8.131l3.67,2.794A6.849,6.849,0,0,1,13.665,6.3Z" transform="translate(-2.314 -2)" fill="#c2cad8"/>
    </g>
  </g>
</svg>
