<svg xmlns="http://www.w3.org/2000/svg" width="22.001" height="22" viewBox="0 0 22.001 22">
  <path id="phone-svgrepo-com" d="M0,10.273a8.535,8.535,0,0,0,.767,3.007,24.548,24.548,0,0,0,1.412,2.853A26.027,26.027,0,0,0,6.567,21.81a17.317,17.317,0,0,0,6.014,3.866,11.225,11.225,0,0,0,4.112,1.1,7.85,7.85,0,0,0,2.73-.676,3.814,3.814,0,0,0,2.056-1.749,5.427,5.427,0,0,0,.368-1.074A5.268,5.268,0,0,0,22,22.209a.872.872,0,0,0-.03-.338,1.466,1.466,0,0,0-.553-.491c-.553-.276-.644-.368-1.473-.859-.859-.491-1.749-1.044-2.516-1.442a2.043,2.043,0,0,0-.706-.307c-.491,0-1.1.676-1.626,1.412-.553.736-1.166,1.412-1.6,1.412a1.305,1.305,0,0,1-.676-.245c-.245-.153-.491-.276-.644-.368a15.2,15.2,0,0,1-6.044-6.014,3.811,3.811,0,0,1-.614-1.289c0-.4.553-.859,1.1-1.35A2.5,2.5,0,0,0,7.7,10.641a3.945,3.945,0,0,0-.185-.767c-.276-.8-.644-1.718-.951-2.608-.153-.43-.276-.736-.307-.89a1.024,1.024,0,0,1-.123-.368c-.03-.153-.092-.276-.123-.4A1.34,1.34,0,0,0,5.614,5a3.652,3.652,0,0,0-.89-.185c-.368,0-.8-.03-.982-.03a1.388,1.388,0,0,0-.338.03h-.4A4.748,4.748,0,0,0,.8,7.113,7.525,7.525,0,0,0,0,10.273Z" transform="translate(0.001 -4.781)" fill="#c2cad8"/>
</svg>
